<?xml version="1.0" encoding="UTF-8"?>
<svg xmlns="http://www.w3.org/2000/svg" height="420" width="420" viewBox="0 0 35 35" role="img"><path fill="#ffffff" d="M0,0 h35v35H0z" shape-rendering="crispEdges"></path><path fill="#111111" d="M3 3h7v1H3zM13 3h1v1H13zM19 3h4v1H19zM25,3 h7v1H25zM3 4h1v1H3zM9 4h1v1H9zM12 4h4v1H12zM18 4h1v1H18zM23 4h1v1H23zM25 4h1v1H25zM31,4 h1v1H31zM3 5h1v1H3zM5 5h3v1H5zM9 5h1v1H9zM11 5h3v1H11zM15 5h1v1H15zM17 5h1v1H17zM19 5h1v1H19zM22 5h2v1H22zM25 5h1v1H25zM27 5h3v1H27zM31,5 h1v1H31zM3 6h1v1H3zM5 6h3v1H5zM9 6h1v1H9zM11 6h2v1H11zM14 6h1v1H14zM16 6h2v1H16zM20 6h1v1H20zM25 6h1v1H25zM27 6h3v1H27zM31,6 h1v1H31zM3 7h1v1H3zM5 7h3v1H5zM9 7h1v1H9zM11 7h4v1H11zM17 7h1v1H17zM22 7h2v1H22zM25 7h1v1H25zM27 7h3v1H27zM31,7 h1v1H31zM3 8h1v1H3zM9 8h1v1H9zM11 8h1v1H11zM15 8h1v1H15zM18 8h1v1H18zM20 8h2v1H20zM25 8h1v1H25zM31,8 h1v1H31zM3 9h7v1H3zM11 9h1v1H11zM13 9h1v1H13zM15 9h1v1H15zM17 9h1v1H17zM19 9h1v1H19zM21 9h1v1H21zM23 9h1v1H23zM25,9 h7v1H25zM11 10h1v1H11zM13 10h3v1H13zM18 10h2v1H18zM22 10h2v1H22zM3 11h1v1H3zM5 11h5v1H5zM13 11h5v1H13zM20 11h1v1H20zM22 11h1v1H22zM25 11h5v1H25zM3 12h1v1H3zM5 12h1v1H5zM12 12h1v1H12zM14 12h2v1H14zM17 12h1v1H17zM19 12h1v1H19zM22 12h6v1H22zM31,12 h1v1H31zM6 13h1v1H6zM8 13h7v1H8zM18 13h2v1H18zM23 13h5v1H23zM3 14h1v1H3zM5 14h1v1H5zM8 14h1v1H8zM13 14h1v1H13zM15 14h1v1H15zM18 14h2v1H18zM21 14h1v1H21zM25 14h4v1H25zM30 14h1v1H30zM5 15h1v1H5zM9 15h3v1H9zM15 15h2v1H15zM18 15h1v1H18zM20 15h1v1H20zM22 15h1v1H22zM24 15h1v1H24zM28 15h2v1H28zM5 16h1v1H5zM7 16h2v1H7zM11 16h3v1H11zM15 16h2v1H15zM19 16h9v1H19zM31,16 h1v1H31zM3 17h2v1H3zM6 17h1v1H6zM8 17h4v1H8zM14 17h1v1H14zM16 17h5v1H16zM25 17h5v1H25zM3 18h1v1H3zM8 18h1v1H8zM11 18h1v1H11zM14 18h1v1H14zM17 18h1v1H17zM26 18h2v1H26zM30 18h1v1H30zM4 19h1v1H4zM8 19h2v1H8zM11 19h1v1H11zM14 19h1v1H14zM18 19h1v1H18zM20 19h1v1H20zM22 19h1v1H22zM28 19h2v1H28zM3 20h1v1H3zM6 20h3v1H6zM12 20h1v1H12zM16 20h1v1H16zM19 20h1v1H19zM22 20h6v1H22zM29 20h1v1H29zM31,20 h1v1H31zM3 21h1v1H3zM6 21h5v1H6zM13 21h1v1H13zM15 21h4v1H15zM20 21h2v1H20zM24 21h1v1H24zM29 21h1v1H29zM3 22h1v1H3zM5 22h2v1H5zM11 22h3v1H11zM16 22h1v1H16zM21 22h1v1H21zM23 22h1v1H23zM25 22h1v1H25zM27 22h1v1H27zM30 22h1v1H30zM3 23h1v1H3zM5 23h1v1H5zM7 23h3v1H7zM13 23h3v1H13zM17 23h4v1H17zM23 23h5v1H23zM29,23 h3v1H29zM11 24h1v1H11zM19 24h1v1H19zM21 24h3v1H21zM27,24 h5v1H27zM3 25h7v1H3zM13 25h2v1H13zM18 25h2v1H18zM22 25h2v1H22zM25 25h1v1H25zM27 25h3v1H27zM3 26h1v1H3zM9 26h1v1H9zM11 26h1v1H11zM17 26h3v1H17zM22 26h2v1H22zM27 26h1v1H27zM30 26h1v1H30zM3 27h1v1H3zM5 27h3v1H5zM9 27h1v1H9zM11 27h1v1H11zM13 27h2v1H13zM18 27h1v1H18zM20 27h2v1H20zM23 27h5v1H23zM29,27 h3v1H29zM3 28h1v1H3zM5 28h3v1H5zM9 28h1v1H9zM11 28h1v1H11zM13 28h2v1H13zM17 28h1v1H17zM19 28h5v1H19zM26 28h1v1H26zM28,28 h4v1H28zM3 29h1v1H3zM5 29h3v1H5zM9 29h1v1H9zM11 29h1v1H11zM14 29h1v1H14zM16 29h1v1H16zM18 29h1v1H18zM20 29h1v1H20zM22 29h9v1H22zM3 30h1v1H3zM9 30h1v1H9zM12 30h1v1H12zM14 30h1v1H14zM16 30h1v1H16zM19 30h1v1H19zM21 30h1v1H21zM23 30h1v1H23zM25 30h2v1H25zM28 30h1v1H28zM30 30h1v1H30zM3 31h7v1H3zM11 31h1v1H11zM13 31h2v1H13zM16 31h1v1H16zM18 31h3v1H18zM22 31h1v1H22zM24 31h1v1H24zM26 31h2v1H26zM29 31h1v1H29z" shape-rendering="crispEdges"></path></svg>
